<svg xmlns="http://www.w3.org/2000/svg" viewBox="0 0 512 512" role="img" aria-label="GridRush Arena icon">
  <defs>
    <linearGradient id="bg" x1="0" x2="1" y1="0" y2="1">
      <stop stop-color="#07111f" />
      <stop offset="0.52" stop-color="#122c47" />
      <stop offset="1" stop-color="#201322" />
    </linearGradient>
    <linearGradient id="a" x1="0" x2="1" y1="0" y2="1">
      <stop stop-color="#2fffe2" />
      <stop offset="1" stop-color="#178bff" />
    </linearGradient>
    <linearGradient id="b" x1="0" x2="1" y1="0" y2="1">
      <stop stop-color="#ffcf32" />
      <stop offset="1" stop-color="#ff5c93" />
    </linearGradient>
  </defs>
  <rect width="512" height="512" rx="96" fill="url(#bg)" />
  <path d="M86 116h340v280H86z" fill="none" stroke="#ffffff" stroke-opacity=".16" stroke-width="14" />
  <g stroke="#07111f" stroke-width="10">
    <rect x="128" y="160" width="74" height="74" rx="12" fill="url(#a)" />
    <rect x="206" y="160" width="74" height="74" rx="12" fill="url(#a)" />
    <rect x="284" y="160" width="74" height="74" rx="12" fill="url(#b)" />
    <rect x="206" y="238" width="74" height="74" rx="12" fill="url(#b)" />
    <rect x="284" y="238" width="74" height="74" rx="12" fill="url(#b)" />
    <rect x="128" y="316" width="74" height="74" rx="12" fill="#76ff8e" />
    <rect x="206" y="316" width="74" height="74" rx="12" fill="#76ff8e" />
    <rect x="284" y="316" width="74" height="74" rx="12" fill="#8fa2ff" />
  </g>
</svg>
